# AST/ASF file generated using VICON BodyLanguage
# -----------------------------------------------
:version 1.10
:name VICON
:units
  mass 1.0
  length 0.45
  angle deg
:documentation
   .ast/.asf automatically generated from VICON data using
   VICON BodyBuilder and BodyLanguage model FoxedUp or BRILLIANT.MOD
:root
   order TX TY TZ RX RY RZ
   axis XYZ
   position 0 0 0  
   orientation 0 0 0 
:bonedata
  begin
     id 1 
     name lhipjoint
     direction 0.567725 -0.736092 0.368589 
     length 2.42353 
     axis 0 0 0  XYZ
  end
  begin
     id 2 
     name lfemur
     direction 0.34202 -0.939693 0  
     length 7.24894  
     axis 0 0 20  XYZ
    dof rx ry rz
    limits (-160.0 20.0)
           (-70.0 70.0)
           (-60.0 70.0)
  end
  begin
     id 3 
     name ltibia
     direction 0.34202 -0.939693 0   
     length 7.6997   
     axis 0 0 20   XYZ
    dof rx
    limits (-10.0 170.0)
  end
  begin
     id 4 
     name lfoot
     direction 0.100767 -0.276854 0.955614   
     length 2.37556   
     axis -90 7.62852e-016 20   XYZ
    dof rx rz
    limits (-45.0 90.0)
           (-70.0 20.0)
  end
  begin
     id 5 
     name ltoes
     direction 1.53592e-011 -4.21894e-011 1   
     length 1.18363   
     axis -90 7.62852e-016 20   XYZ
    dof rx
    limits (-90.0 20.0)
  end
  begin
     id 6 
     name rhipjoint
     direction -0.556459 -0.742938 0.372017   
     length 2.4012  
     axis 0 0 0  XYZ 
  end
  begin
     id 7 
     name rfemur
     direction -0.34202 -0.939693 0   
     length 7.5119   
     axis 0 0 -20   XYZ
    dof rx ry rz
    limits (-160.0 20.0)
           (-70.0 70.0)
           (-70.0 60.0)
  end
  begin
     id 8 
     name rtibia
     direction -0.34202 -0.939693 0   
     length 7.50155   
     axis 0 0 -20   XYZ
    dof rx
    limits (-10.0 170.0)
 end
 begin
     id 9 
     name rfoot
     direction -0.118427 -0.325376 0.938139   
     length 2.32487  
     axis -90 -7.62852e-016 -20   XYZ
    dof rx rz
    limits (-45.0 90.0)
           (-20.0 70.0)
  end
  begin
     id 10 
     name rtoes
     direction -1.53525e-011 -4.21868e-011 1   
     length 1.15233   
     axis -90 -7.62852e-016 -20   XYZ
    dof rx
    limits (-90.0 20.0)
  end
  begin
     id 11 
     name lowerback
     direction 0.0287568 0.999577 -0.00434502   
     length 2.15243   
     axis 0 0 0   XYZ
    dof rx ry rz
    limits (-20.0 45.0)
           (-30.0 30.0)
           (-30.0 30.0)
  end
  begin
     id 12 
     name upperback
     direction 0.0294009 0.99956 0.00404628   
     length 2.15427   
     axis 0 0 0   XYZ
    dof rx ry rz
    limits (-20.0 45.0)
           (-30.0 30.0)
           (-30.0 30.0)
  end
  begin
     id 13 
     name thorax
     direction 0.0151014 0.999868 0.0059419   
     length 2.14898   
     axis 0 0 0   XYZ
    dof rx ry rz
    limits (-20.0 45.0)
           (-30.0 30.0)
           (-30.0 30.0)
  end
  begin
     id 14 
     name lowerneck
     direction -0.0249197 0.989906 0.139515   
     length 1.6861   
     axis 0 0 0   XYZ
    dof rx ry rz
    limits (-20.0 45.0)
           (-30.0 30.0)
           (-30.0 30.0)
  end
  begin
     id 15 
     name upperneck
     direction 0.0438463 0.988795 -0.142693   
     length 1.71276   
     axis 0 0 0   XYZ
    dof rx ry rz
    limits (-20.0 45.0)
           (-30.0 30.0)
           (-30.0 30.0)
  end
  begin
     id 16
     name head
     direction 0.0148499 0.997845 -0.0639186  
     length 1.7209  
     axis 0 0 0   XYZ
    dof rx ry rz
    limits (-20.0 45.0)
           (-30.0 30.0)
           (-30.0 30.0)
  end
  begin
     id 17 
     name lclavicle
     direction 0.940298 0.323464 -0.105876  
     length 3.9048  
     axis 0 0 0   XYZ
    dof ry rz
    limits (-20.0 10.0)
           (0.0 20.0)
  end
  begin
     id 18 
     name lhumerus
     direction 1 -4.48954e-011 -4.9675e-028   
     length 4.6851   
     axis 180 -30 -90   XYZ
    dof rx ry rz
    limits (-60.0 90.0)
           (-90.0 90.0)
           (-90.0 90.0)
  end
  begin
     id 19
     name lradius
     direction 1 -4.48992e-011 -1.03359e-026   
     length 3.39626   
     axis 180 -30 -90   XYZ
    dof rx
    limits (-10.0 170.0)
  end
  begin
     id 20
     name lwrist
     direction 1 -4.48906e-011 -1.67336e-026   
     length 1.69813   
     axis 9.90442e-015 90 90   XYZ
    dof ry
    limits (-180.0 0.0)
 end
  begin
     id 21 
     name lhand
     direction 1 -4.49006e-011 -3.34673e-026   
     length 0.486078   
     axis 2.1355e-014 90 90   XYZ
    dof rx rz
    limits (-90.0 90.0)
           (-45.0 45.0)
  end
  begin
     id 22 
     name lfingers
     direction 1 -4.48992e-011 -6.69345e-026   
     length 0.391889   
     axis 4.27099e-014 90 90   XYZ
    dof rx
    limits (0.0 90.0)
  end
  begin
     id 23
     name lthumb
     direction 0.707107 -6.34926e-011 0.707107   
     length 0.562676   
     axis -90 45 2.85299e-015   XYZ
    dof rx rz
    limits (-45.0 45.0)
           (-45.0 45.0)
  end
  begin
     id 24 
     name rclavicle
     direction -0.882459 0.414895 -0.221648   
     length 3.44646  
     axis 0 0 0   XYZ 
    dof ry rz
    limits (-10.0 20.0)
           (-20.0 0.0)
  end
  begin
     id 25 
     name rhumerus
     direction -1 -4.48962e-011 -2.37984e-027  
     length 5.55576   
     axis 180 30 90   XYZ
    dof rx ry rz
    limits (-90.0 60.0)
           (-90.0 90.0)
           (-90.0 90.0)
  end
  begin
     id 26 
     name rradius
     direction -1 -4.48982e-011 -6.86791e-027   
     length 3.32774   
     axis 180 30 90   XYZ
    dof rx
    limits (-10.0 170.0)
  end
  begin
     id 27 
     name rwrist
     direction -1 -4.48961e-011 -1.67336e-026   
     length 1.66387   
     axis 9.90442e-015 -90 -90   XYZ
    dof ry
    limits (-180.0 0.0)
  end
  begin
     id 28
     name rhand
     direction -1 -4.4897e-011 -3.34673e-026   
     length 0.507628   
     axis 2.1355e-014 -90 -90   XYZ
    dof rx rz
    limits (-90.0 90.0)
           (-45.0 45.0)
  end
  begin
     id 29
     name rfingers
     direction -1 -4.48854e-011 -6.69345e-026   
     length 0.409263   
     axis 4.27099e-014 -90 -90   XYZ
    dof rx
    limits (0.0 90.0)
  end
  begin
     id 30
     name rthumb
     direction -0.707107 -6.34913e-011 0.707107   
     length 0.587622   
     axis -90 -45 -2.85299e-015   XYZ
    dof rx rz
    limits (-45.0 45.0)
           (-45.0 45.0)
  end
:hierarchy
  begin
    root lhipjoint rhipjoint lowerback
    lhipjoint lfemur
    lfemur ltibia
    ltibia lfoot
    lfoot ltoes
    rhipjoint rfemur
    rfemur rtibia
    rtibia rfoot
    rfoot rtoes
    lowerback upperback
    upperback thorax
    thorax lowerneck lclavicle rclavicle
    lowerneck upperneck
    upperneck head
    lclavicle lhumerus
    lhumerus lradius
    lradius lwrist
    lwrist lhand lthumb
    lhand lfingers
    rclavicle rhumerus
    rhumerus rradius
    rradius rwrist
    rwrist rhand rthumb
    rhand rfingers
  end

#!OML:ASF E:\motion texture\Top Level 1\Subject 1\Session 1\male.ASF
:FULLY-SPECIFIED
:DEGREES
88
root 44.5391 17.8405 5.72914 122.793 -83.4765 -113.413
lowerback -4.02887 0.217281 4.94547
upperback -1.60295 -0.0189204 3.26359
thorax 0.612232 -0.0554891 0.581662
lowerneck -19.3656 -4.54065 -5.42098
upperneck 13.5755 -6.05816 7.37619
head 7.76141 -2.47506 2.57795
rclavicle 2.73329e-016 -3.97569e-015
rhumerus -26.6986 -12.2952 -78.2198
rradius 21.6909
rwrist 15.0498
rhand -11.5833 -22.9007
rfingers 7.12502
rthumb 14.4585 -52.377
lclavicle 2.73329e-016 -3.97569e-015
lhumerus -27.1393 14.0124 83.9181
lradius 20.6996
lwrist -35.8012
lhand -11.8494 19.8618
lfingers 7.12502
lthumb 14.2021 49.3563
rfemur -10.417 3.48807 28.7984
rtibia 16.3138
rfoot -11.0132 -8.80348
rtoes 14.0109
lfemur -6.80015 -4.40205 -9.96142
ltibia 12.1134
lfoot -11.8543 5.2968
ltoes 0.0449454
89
root 44.5254 17.8381 5.7163 122.991 -83.4492 -113.594
lowerback -3.99499 0.217329 4.97284
upperback -1.63728 -0.0165608 3.27578
thorax 0.557963 -0.0561096 0.579026
lowerneck -19.0879 -4.539 -5.44075
upperneck 13.5531 -6.0613 7.3698
head 7.70734 -2.48507 2.58192
rclavicle 9.54166e-015 -5.00937e-014
rhumerus -26.7835 -12.1763 -78.2288
rradius 21.7367
rwrist 14.9981
rhand -11.5863 -22.8909
rfingers 7.12502
rthumb 14.4556 -52.3674
lclavicle 9.54166e-015 -5.00937e-014
lhumerus -27.2918 14.0056 83.8707
lradius 20.7806
lwrist -35.7187
lhand -11.8551 19.8488
lfingers 7.12502
lthumb 14.1966 49.3437
rfemur -10.3979 3.50207 28.8662
rtibia 16.3421
rfoot -11.0641 -8.76005
rtoes 14.0298
lfemur -6.92956 -4.33158 -9.90049
ltibia 12.4274
lfoot -11.9835 5.29139
ltoes -0.104088
90
root 44.5114 17.8356 5.70327 123.183 -83.4209 -113.768
lowerback -3.96362 0.216398 5.00337
upperback -1.67302 -0.0157622 3.28815
thorax 0.5036 -0.0575845 0.574764
lowerneck -18.7861 -4.53739 -5.46403
upperneck 13.5194 -6.06412 7.36354
head 7.64547 -2.49581 2.58689
rclavicle -6.28657e-015 9.14409e-015
rhumerus -26.874 -12.0485 -78.2396
rradius 21.7864
rwrist 14.9447
rhand -11.5871 -22.8849
rfingers 7.12502
rthumb 14.4548 -52.3615
lclavicle -6.28657e-015 9.14409e-015
lhumerus -27.4532 13.9977 83.8215
lradius 20.8698
lwrist -35.6263
lhand -11.8628 19.8363
lfingers 7.12502
lthumb 14.1892 49.3317
rfemur -10.3777 3.51605 28.9359
rtibia 16.3709
rfoot -11.1155 -8.71565
rtoes 14.0475
lfemur -7.07035 -4.25663 -9.83759
ltibia 12.7648
lfoot -12.1159 5.28319
ltoes -0.260883
91
root 44.4973 17.8329 5.69005 123.358 -83.3919 -113.927
lowerback -3.92988 0.216473 5.03658
upperback -1.7062 -0.0135949 3.30017
thorax 0.450582 -0.0583395 0.568702
lowerneck -18.4926 -4.53841 -5.48631
upperneck 13.4884 -6.07026 7.35445
head 7.58601 -2.50812 2.59031
rclavicle -4.84538e-015 3.65764e-014
rhumerus -26.9601 -11.9219 -78.251
rradius 21.838
rwrist 14.8891
rhand -11.5884 -22.8779
rfingers 7.12502
rthumb 14.4536 -52.3545
lclavicle -4.84538e-015 3.65764e-014
lhumerus -27.6098 13.9843 83.7758
lradius 20.9655
lwrist -35.5253
lhand -11.8713 19.8198
lfingers 7.12502
lthumb 14.181 49.3157
rfemur -10.3561 3.52999 29.0078
rtibia 16.3995
rfoot -11.1671 -8.67129
rtoes 14.0647
lfemur -7.22547 -4.17635 -9.77239
ltibia 13.1302
lfoot -12.2513 5.27079
ltoes -0.426166
92
root 44.483 17.8303 5.67665 123.522 -83.3622 -114.075
lowerback -3.89346 0.216331 5.07134
upperback -1.74002 -0.0115436 3.31339
thorax 0.395398 -0.0592451 0.563028
lowerneck -18.1897 -4.54059 -5.51172
upperneck 13.4538 -6.07736 7.34423
head 7.52386 -2.5214 2.59394
rclavicle 1.86361e-015 -5.60573e-014
rhumerus -27.0487 -11.7882 -78.2618
rradius 21.8922
rwrist 14.829
rhand -11.5916 -22.8701
rfingers 7.12502
rthumb 14.4505 -52.347
lclavicle 1.86361e-015 -5.60573e-014
lhumerus -27.771 13.9697 83.7322
lradius 21.0696
lwrist -35.4166
lhand -11.8778 19.806
lfingers 7.12502
lthumb 14.1747 49.3024
rfemur -10.3328 3.5439 29.0817
rtibia 16.4288
rfoot -11.22 -8.62676
rtoes 14.082
lfemur -7.39401 -4.09007 -9.70519
ltibia 13.5232
lfoot -12.3885 5.25403
ltoes -0.605364
93
root 44.4684 17.8275 5.66313 123.665 -83.3324 -114.204
lowerback -3.85518 0.214822 5.10796
upperback -1.77569 -0.0111837 3.3284
thorax 0.337212 -0.061137 0.558094
lowerneck -17.8725 -4.54287 -5.54288
upperneck 13.4156 -6.08373 7.33354
head 7.45817 -2.53505 2.59871
rclavicle -1.45858e-014 1.94809e-014
rhumerus -27.1421 -11.6446 -78.2717
rradius 21.9496
rwrist 14.7655
rhand -11.5941 -22.8659
rfingers 7.12502
rthumb 14.4481 -52.343
lclavicle -1.45858e-014 1.94809e-014
lhumerus -27.942 13.9532 83.6903
lradius 21.1846
lwrist -35.2962
lhand -11.8845 19.7936
lfingers 7.12502
lthumb 14.1683 49.2904
rfemur -10.3075 3.55682 29.1573
rtibia 16.4582
rfoot -11.2729 -8.5819
rtoes 14.102
lfemur -7.57677 -3.99812 -9.6362
ltibia 13.944
lfoot -12.5257 5.23269
ltoes -0.797543
94
root 44.4537 17.8247 5.64946 123.796 -83.3019 -114.321
lowerback -3.81396 0.213136 5.14588
upperback -1.81213 -0.0108398 3.34486
thorax 0.276575 -0.0631429 0.553943
lowerneck -17.5475 -4.5464 -5.57912
upperneck 13.376 -6.09134 7.32407
head 7.39097 -2.54965 2.60476
rclavicle -7.45443e-015 1.63003e-014
rhumerus -27.2374 -11.496 -78.28
rradius 22.009
rwrist 14.7013
rhand -11.5951 -22.864
rfingers 7.12502
rthumb 14.4472 -52.3411
lclavicle -7.45443e-015 1.63003e-014
lhumerus -28.1187 13.9364 83.6507
lradius 21.3091
lwrist -35.1679
lhand -11.8914 19.7823
lfingers 7.12502
lthumb 14.1617 49.2796
rfemur -10.2801 3.56931 29.2347
rtibia 16.4871
rfoot -11.3269 -8.53696
rtoes 14.1204
lfemur -7.7747 -3.89936 -9.5652
ltibia 14.395
lfoot -12.6635 5.20582
ltoes -1.00506
95
root 44.4388 17.8218 5.6357 123.913 -83.2707 -114.425
lowerback -3.76769 0.213643 5.18594
upperback -1.84568 -0.00729119 3.36116
thorax 0.216175 -0.0635269 0.548567
lowerneck -17.2368 -4.55488 -5.61424
upperneck 13.3427 -6.10548 7.31146
head 7.32855 -2.56716 2.60872
rclavicle -2.70844e-015 1.03368e-014
rhumerus -27.3261 -11.3553 -78.2865
rradius 22.068
rwrist 14.6385
rhand -11.5986 -22.8559
rfingers 7.12502
rthumb 14.4438 -52.3333
lclavicle -2.70844e-015 1.03368e-014
lhumerus -28.2884 13.9104 83.6178
lradius 21.4396
lwrist -35.0252
lhand -11.9046 19.7677
lfingers 7.12502
lthumb 14.149 49.2659
rfemur -10.2503 3.58101 29.3142
rtibia 16.5159
rfoot -11.3816 -8.49118
rtoes 14.1396
lfemur -7.98833 -3.79357 -9.49225
ltibia 14.8773
lfoot -12.8005 5.17303
ltoes -1.22654
96
root 44.4237 17.8188 5.62184 124.002 -83.2393 -114.503
lowerback -3.72023 0.214858 5.22906
upperback -1.8747 -0.00293497 3.37757
thorax 0.159792 -0.0634039 0.541633
lowerneck -16.9338 -4.56633 -5.64921
upperneck 13.3083 -6.12336 7.29794
head 7.26732 -2.58635 2.6119
rclavicle -6.31141e-015 2.34566e-014
rhumerus -27.4076 -11.2167 -78.293
rradius 22.128
rwrist 14.5746
rhand -11.6019 -22.8495
rfingers 7.12502
rthumb 14.4406 -52.3271
lclavicle -6.31141e-015 2.34566e-014
lhumerus -28.4507 13.8827 83.5894
lradius 21.5767
lwrist -34.8762
lhand -11.9207 19.752
lfingers 7.12502
lthumb 14.1334 49.2513
rfemur -10.2185 3.59183 29.3958
rtibia 16.5444
rfoot -11.4365 -8.44663
rtoes 14.1596
lfemur -8.21946 -3.68175 -9.4166
ltibia 15.393
lfoot -12.9358 5.13348
ltoes -1.46044
97
root 44.4084 17.8158 5.60788 124.075 -83.2085 -114.566
lowerback -3.6736 0.215248 5.27405
upperback -1.9013 0.000132033 3.39459
thorax 0.106323 -0.0638785 0.534237
lowerneck -16.6248 -4.5791 -5.68752
upperneck 13.2694 -6.14264 7.28471
head 7.20382 -2.60654 2.61577
rclavicle -2.85753e-015 4.49253e-014
rhumerus -27.4883 -11.0697 -78.3004
rradius 22.1921
rwrist 14.5054
rhand -11.6042 -22.8469
rfingers 7.12502
rthumb 14.4384 -52.3246
lclavicle -2.85753e-015 4.49253e-014
lhumerus -28.6136 13.855 83.5633
lradius 21.7233
lwrist -34.7176
lhand -11.9366 19.7378
lfingers 7.12502
lthumb 14.1181 49.2382
rfemur -10.1844 3.60132 29.4781
rtibia 16.5728
rfoot -11.493 -8.40241
rtoes 14.1768
lfemur -8.46801 -3.56239 -9.33992
ltibia 15.9417
lfoot -13.0671 5.08671
ltoes -1.71151
